<svg id="Group_1065" data-name="Group 1065" xmlns="http://www.w3.org/2000/svg" xmlns:xlink="http://www.w3.org/1999/xlink" width="199.089" height="204.116" viewBox="0 0 199.089 204.116">
  <defs>
    <clipPath id="clip-path">
      <rect id="Rectangle_1855" data-name="Rectangle 1855" width="199.089" height="204.116" fill="none"/>
    </clipPath>
    <clipPath id="clip-path-3">
      <rect id="Rectangle_1849" data-name="Rectangle 1849" width="108.463" height="11.839" fill="none"/>
    </clipPath>
    <clipPath id="clip-path-5">
      <rect id="Rectangle_1851" data-name="Rectangle 1851" width="18.318" height="9.974" fill="none"/>
    </clipPath>
    <clipPath id="clip-path-6">
      <rect id="Rectangle_1853" data-name="Rectangle 1853" width="11.722" height="42.693" fill="none"/>
    </clipPath>
  </defs>
  <g id="Group_1064" data-name="Group 1064" clip-path="url(#clip-path)">
    <g id="Group_1055" data-name="Group 1055">
      <g id="Group_1054" data-name="Group 1054" clip-path="url(#clip-path)">
        <g id="Group_1053" data-name="Group 1053" transform="translate(7.251 192.277)" opacity="0.3">
          <g id="Group_1052" data-name="Group 1052">
            <g id="Group_1051" data-name="Group 1051" clip-path="url(#clip-path-3)">
              <path id="Path_258" data-name="Path 258" d="M17.98,419.3H92.756a32.857,32.857,0,0,0,12.953-2.621s20.6-9.213,17.869-9.213l-83.8,0c-4.512,0-23.012,7.792-23.012,7.792-2.417,1.041-1.516,4.047,1.212,4.047" transform="translate(-15.365 -407.465)" fill="#1c404e"/>
            </g>
          </g>
        </g>
      </g>
    </g>
    <path id="Path_259" data-name="Path 259" d="M155.062,388.5H69.314l35.914-16.061h85.748Z" transform="translate(-36.606 -196.69)" fill="#1c404e"/>
    <g id="Group_1063" data-name="Group 1063">
      <g id="Group_1062" data-name="Group 1062" clip-path="url(#clip-path)">
        <path id="Path_260" data-name="Path 260" d="M205.754,88.621c-25.819,8.354-28.1-11.77-28.1-21.262V47.235" transform="translate(-93.823 -24.946)" fill="none" stroke="#1c404e" stroke-miterlimit="10" stroke-width="2"/>
        <path id="Path_261" data-name="Path 261" d="M210.322,43.355s5.316-21.262-5.569-20.5c0,0-30.856,12.65-32.628-4.562S191.217-2.97,201.668,1.939s10.311,9.139,10.311,9.139,7.313,1.662,7.873,16.1c.286,7.356-.923,14.409-9.53,16.18" transform="translate(-90.846 0)" fill="#1c404e"/>
        <path id="Path_262" data-name="Path 262" d="M171.939,57.993s-11.27-12.247-.332-26.353Z" transform="translate(-88.106 -16.71)" fill="#1c404e"/>
        <path id="Path_263" data-name="Path 263" d="M205.494,81.246s-1.4,3.017-2.384,5.475c-1.4,3.483,2.426,4.531,3.919,3.691" transform="translate(-107.106 -42.907)" fill="none" stroke="#1c404e" stroke-miterlimit="10" stroke-width="2"/>
        <path id="Path_264" data-name="Path 264" d="M196.81,80.119a1.68,1.68,0,1,1-1.679-1.679,1.679,1.679,0,0,1,1.679,1.679" transform="translate(-102.164 -41.425)" fill="#1c404e"/>
        <path id="Path_265" data-name="Path 265" d="M219.719,80.119a1.68,1.68,0,1,1-1.679-1.679,1.679,1.679,0,0,1,1.679,1.679" transform="translate(-114.263 -41.425)" fill="#1c404e"/>
        <line id="Line_37" data-name="Line 37" y2="34.181" transform="translate(121.133 43.098)" fill="none" stroke="#1c404e" stroke-miterlimit="10" stroke-width="2"/>
        <line id="Line_38" data-name="Line 38" y2="12.975" transform="translate(93.699 64.257)" fill="none" stroke="#1c404e" stroke-miterlimit="10" stroke-width="2"/>
        <g id="Group_1058" data-name="Group 1058" transform="translate(93.699 63.941)" opacity="0.3">
          <g id="Group_1057" data-name="Group 1057">
            <g id="Group_1056" data-name="Group 1056" clip-path="url(#clip-path-5)">
              <path id="Path_266" data-name="Path 266" d="M198.564,145.464s7.679.747,18.319-9.963c0,0-10.947,3.633-18.319.316Z" transform="translate(-198.564 -135.501)" fill="#1c404e"/>
            </g>
          </g>
        </g>
        <path id="Path_267" data-name="Path 267" d="M6.506,0A6.532,6.532,0,0,0,0,6.4l0,.141H13.012l0-.141A6.532,6.532,0,0,0,6.506,0" transform="translate(105.794 57.541) rotate(180)" fill="#1c404e"/>
        <path id="Path_268" data-name="Path 268" d="M248.442,163.766c34.382,0,32.376,18.463,33.237,27.58,1.622,17.167,4.161,45.49,4.161,45.49a9.139,9.139,0,0,1-2.277,7.118,8.924,8.924,0,0,1-3.021,2.438l-31.625,20.426-7.853-14.113,23.159-16.893L252.5,197.259" transform="translate(-127.31 -86.487)" fill="#fff"/>
        <path id="Path_269" data-name="Path 269" d="M248.442,163.766c34.382,0,32.376,18.463,33.237,27.58,1.622,17.167,4.161,45.49,4.161,45.49a9.139,9.139,0,0,1-2.277,7.118,8.924,8.924,0,0,1-3.021,2.438l-31.625,20.426-7.853-14.113,23.159-16.893L252.5,197.259" transform="translate(-127.31 -86.487)" fill="none" stroke="#1c404e" stroke-miterlimit="10" stroke-width="2"/>
        <path id="Path_270" data-name="Path 270" d="M156.712,163.766c-23.708-.047-29.455,11.43-30.475,20.53l-6.923,52.54a9.139,9.139,0,0,0,2.277,7.118,8.925,8.925,0,0,0,3.021,2.438l33.065,16.439,4.93-7.46-2.98-2.521a5.027,5.027,0,0,0-.905-.772l-.021-.012-17.769-18.049,3.223-38.879" transform="translate(-62.981 -86.487)" fill="#fff"/>
        <path id="Path_271" data-name="Path 271" d="M156.712,163.766c-23.708-.047-29.455,11.43-30.475,20.53l-6.923,52.54a9.139,9.139,0,0,0,2.277,7.118,8.925,8.925,0,0,0,3.021,2.438l33.065,16.439,4.93-7.46-2.98-2.521a5.027,5.027,0,0,0-.905-.772l-.021-.012-17.769-18.049,3.223-38.879" transform="translate(-62.981 -86.487)" fill="none" stroke="#1c404e" stroke-miterlimit="10" stroke-width="2"/>
        <path id="Path_272" data-name="Path 272" d="M141.389,328.842H57.664a8.435,8.435,0,0,1-8.435-8.435V267.026a8.435,8.435,0,0,1,8.435-8.435h83.725a8.435,8.435,0,0,1,8.435,8.435v53.381a8.435,8.435,0,0,1-8.435,8.435" transform="translate(-25.999 -136.566)" fill="#ff8278"/>
        <rect id="Rectangle_1852" data-name="Rectangle 1852" width="100.595" height="70.251" rx="12" transform="translate(23.23 122.025)" fill="none" stroke="#1c404e" stroke-miterlimit="10" stroke-width="2"/>
        <path id="Path_273" data-name="Path 273" d="M141.036,336.679a10.007,10.007,0,0,0,9.964-9.81l0-.216H131.069l0,.216a10.007,10.007,0,0,0,9.964,9.81" transform="translate(-69.22 -172.51)" fill="#fff"/>
        <path id="Path_274" data-name="Path 274" d="M198.564,163.667s9.289,14.044,27.434.047" transform="translate(-104.865 -86.435)" fill="#fff"/>
        <path id="Path_275" data-name="Path 275" d="M198.564,163.667s9.289,14.044,27.434.047" transform="translate(-104.865 -86.435)" fill="none" stroke="#1c404e" stroke-miterlimit="10" stroke-width="2"/>
        <line id="Line_39" data-name="Line 39" y1="1.668" x2="6.219" transform="translate(88.178 32.39)" fill="none" stroke="#1c404e" stroke-miterlimit="10" stroke-width="5"/>
        <line id="Line_40" data-name="Line 40" x2="7.572" y2="3.301" transform="translate(102.858 32.021)" fill="none" stroke="#1c404e" stroke-miterlimit="10" stroke-width="5"/>
        <line id="Line_41" data-name="Line 41" y2="5.008" transform="translate(142.523 166.823)" fill="#fff"/>
        <line id="Line_42" data-name="Line 42" y2="5.008" transform="translate(142.523 166.823)" fill="none" stroke="#1c404e" stroke-miterlimit="10" stroke-width="2"/>
        <line id="Line_43" data-name="Line 43" x2="23.23" transform="translate(0 171.831)" fill="#fff"/>
        <line id="Line_44" data-name="Line 44" x2="23.23" transform="translate(0 171.831)" fill="none" stroke="#1c404e" stroke-miterlimit="10" stroke-width="2"/>
        <line id="Line_45" data-name="Line 45" x2="64.32" transform="translate(134.769 171.831)" fill="#fff"/>
        <line id="Line_46" data-name="Line 46" x2="64.32" transform="translate(134.769 171.831)" fill="none" stroke="#1c404e" stroke-miterlimit="10" stroke-width="2"/>
        <g id="Group_1061" data-name="Group 1061" transform="translate(125.192 110.772)" opacity="0.3">
          <g id="Group_1060" data-name="Group 1060">
            <g id="Group_1059" data-name="Group 1059" clip-path="url(#clip-path-6)">
              <path id="Path_276" data-name="Path 276" d="M265.3,234.745l6.412,42.693,5.31-4.141Z" transform="translate(-265.301 -234.744)" fill="#1c404e"/>
            </g>
          </g>
        </g>
      </g>
    </g>
  </g>
</svg>
